<?xml version="1.0" encoding="UTF-8"?>
<svg width="182px" height="78px" viewBox="0 0 182 78" version="1.1" xmlns="http://www.w3.org/2000/svg" xmlns:xlink="http://www.w3.org/1999/xlink">
    <title>Group 2</title>
    <g id="Symbols" stroke="none" stroke-width="1" fill="none" fill-rule="evenodd">
        <g id="Header-1920" transform="translate(-40.000000, -38.000000)" fill-rule="nonzero">
            <g id="LezenSchrijven-logo_NL-kleur_op_wit-rgb" transform="translate(15.000000, 17.000000)">
                <g id="Group-2" transform="translate(25.000000, 21.000000)">
                    <g id="Group" transform="translate(74.000000, 0.000000)" fill="#000000">
                        <path d="M2.67652174,15.1530701 C2.97391304,15.7693714 3.38086957,16.2750545 3.91304348,16.6385143 C4.42956522,17.001974 5.05565217,17.2706182 5.77565217,17.4286442 C6.49565217,17.5866701 7.24695652,17.6656831 8.07652174,17.6656831 C8.54608696,17.6656831 9.04695652,17.6024727 9.59478261,17.4602494 C10.1426087,17.3338286 10.6591304,17.1125922 11.1286957,16.8123429 C11.5982609,16.5120935 11.9895652,16.1486338 12.3182609,15.6745558 C12.6313043,15.2162805 12.7878261,14.6631896 12.7878261,13.9994805 C12.7878261,13.4937974 12.6782609,13.0671273 12.4591304,12.6878649 C12.24,12.3244052 11.9426087,12.0083532 11.5826087,11.7555117 C11.2226087,11.5026701 10.8313043,11.2972364 10.3930435,11.1392104 C9.95478261,10.9811844 9.53217391,10.8547636 9.12521739,10.7441455 L5.16521739,9.76438442 C4.64869565,9.63796364 4.14782609,9.46413506 3.6626087,9.2587013 C3.1773913,9.05326753 2.73913043,8.78462338 2.37913043,8.45276883 C2.01913043,8.12091429 1.72173913,7.71004675 1.48695652,7.22016623 C1.26782609,6.73028571 1.15826087,6.14558961 1.15826087,5.43447273 C1.15826087,4.992 1.23652174,4.48631688 1.40869565,3.90162078 C1.58086957,3.31692468 1.87826087,2.76383377 2.34782609,2.24234805 C2.80173913,1.72086234 3.42782609,1.27838961 4.22608696,0.91492987 C5.02434783,0.55147013 6.04173913,0.377641558 7.29391304,0.377641558 C8.17043478,0.377641558 9.01565217,0.48825974 9.81391304,0.725298701 C10.6121739,0.962337662 11.3165217,1.30999481 11.9113043,1.78407273 C12.506087,2.25815065 12.9913043,2.84284675 13.3513043,3.53816104 C13.7113043,4.23347532 13.8834783,5.03940779 13.8834783,5.97176104 L12.1930435,5.97176104 C12.1617391,5.27644675 12.0052174,4.69175065 11.7391304,4.17026494 C11.4573913,3.66458182 11.1130435,3.23791169 10.6747826,2.89025455 C10.2365217,2.5425974 9.72,2.28975584 9.15652174,2.11592727 C8.5773913,1.9420987 7.9826087,1.84728312 7.35652174,1.84728312 C6.7773913,1.84728312 6.21391304,1.91049351 5.66608696,2.03691429 C5.11826087,2.16333506 4.64869565,2.36876883 4.24173913,2.63741299 C3.83478261,2.92185974 3.50608696,3.28531948 3.25565217,3.72779221 C3.00521739,4.18606753 2.88,4.73915844 2.88,5.41867013 C2.88,5.84534026 2.95826087,6.2088 3.09913043,6.50904935 C3.24,6.8251013 3.42782609,7.07794286 3.67826087,7.29917922 C3.92869565,7.52041558 4.21043478,7.69424416 4.53913043,7.82066494 C4.86782609,7.96288831 5.21217391,8.0577039 5.57217391,8.15251948 L9.90782609,9.2270961 C10.533913,9.40092468 11.1286957,9.60635844 11.6921739,9.8433974 C12.2556522,10.0804364 12.7408696,10.3964883 13.1634783,10.7441455 C13.586087,11.1076052 13.9147826,11.5500779 14.1652174,12.0715636 C14.4,12.5930494 14.5252174,13.2251532 14.5252174,13.9520727 C14.5252174,14.1575065 14.5095652,14.4261506 14.4626087,14.7580052 C14.4156522,15.0898597 14.3217391,15.4533195 14.1652174,15.8325818 C14.0086957,16.2118442 13.7895652,16.5911065 13.4921739,16.9703688 C13.1947826,17.3496312 12.8034783,17.6972883 12.3026087,18.0133403 C11.8017391,18.3293922 11.1756522,18.5822338 10.4243478,18.7718649 C9.67304348,18.9614961 8.78086957,19.0563117 7.73217391,19.0563117 C6.68347826,19.0563117 5.71304348,18.9298909 4.82086957,18.6928519 C3.92869565,18.455813 3.16173913,18.0765506 2.52,17.5708675 C1.89391304,17.0651844 1.40869565,16.4172779 1.06434783,15.6271481 C0.72,14.8370182 0.579130435,13.8888623 0.626086957,12.7826805 L2.31652174,12.7826805 C2.23826087,13.7624416 2.37913043,14.5367688 2.67652174,15.1530701 Z" id="Path"></path>
                        <path d="M22.2573913,5.78212987 L22.2573913,7.10954805 L19.6434783,7.10954805 L19.6434783,15.864187 C19.6434783,16.3856727 19.7217391,16.7965403 19.8626087,17.080987 C20.0034783,17.3812364 20.3634783,17.5392623 20.9269565,17.5708675 C21.3808696,17.5708675 21.8191304,17.5392623 22.2730435,17.4918545 L22.2730435,18.8192727 C22.0382609,18.8192727 21.8034783,18.8350753 21.5686957,18.8508779 C21.333913,18.8666805 21.0991304,18.8824831 20.8643478,18.8824831 C19.8156522,18.8824831 19.08,18.6770494 18.6730435,18.2661818 C18.2504348,17.8553143 18.0626087,17.0967896 18.0782609,15.9906078 L18.0782609,7.10954805 L15.84,7.10954805 L15.84,5.78212987 L18.0782609,5.78212987 L18.0782609,1.87888831 L19.6434783,1.87888831 L19.6434783,5.78212987 L22.2573913,5.78212987 Z" id="Path"></path>
                        <path d="M26.0921739,0.788509091 L26.0921739,3.33272727 L24.5269565,3.33272727 L24.5269565,0.788509091 L26.0921739,0.788509091 Z M26.0921739,5.78212987 L26.0921739,18.7718649 L24.5269565,18.7718649 L24.5269565,5.78212987 L26.0921739,5.78212987 Z" id="Shape"></path>
                        <path d="M37.2991304,7.56782338 C36.72,7.01473247 35.906087,6.73028571 34.8573913,6.73028571 C34.106087,6.73028571 33.4486957,6.88831169 32.8852174,7.20436364 C32.3217391,7.52041558 31.8521739,7.94708571 31.4765217,8.46857143 C31.1008696,8.99005714 30.8191304,9.57475325 30.6313043,10.2384623 C30.4434783,10.9021714 30.3495652,11.5816831 30.3495652,12.2611948 C30.3495652,12.9565091 30.4434783,13.6202182 30.6313043,14.2839273 C30.8191304,14.9476364 31.1008696,15.5323325 31.4765217,16.0538182 C31.8521739,16.5753039 32.3217391,16.9861714 32.8852174,17.318026 C33.4486957,17.6340779 34.106087,17.7921039 34.8573913,17.7921039 C35.3426087,17.7921039 35.7965217,17.6972883 36.2347826,17.5076571 C36.6730435,17.318026 37.0486957,17.0651844 37.3773913,16.7333299 C37.706087,16.4014753 37.9878261,16.022213 38.2069565,15.5639377 C38.426087,15.1056623 38.5513043,14.6157818 38.5982609,14.0784935 L40.1634783,14.0784935 C39.9443478,15.6587532 39.3808696,16.8913558 38.4417391,17.7604987 C37.5182609,18.6454442 36.3130435,19.0879169 34.8573913,19.0879169 C33.8713043,19.0879169 33.0104348,18.9140883 32.2591304,18.5506286 C31.5078261,18.1871688 30.866087,17.6972883 30.3495652,17.080987 C29.8330435,16.4646857 29.4417391,15.7377662 29.1756522,14.9002286 C28.9095652,14.0626909 28.7686957,13.1777455 28.7686957,12.2453922 C28.7686957,11.313039 28.9095652,10.4280935 29.1756522,9.59055584 C29.4417391,8.75301818 29.8330435,8.0419013 30.3495652,7.4097974 C30.866087,6.7934961 31.5078261,6.28781299 32.2591304,5.92435325 C33.0104348,5.56089351 33.8869565,5.37126234 34.8573913,5.37126234 C36.2347826,5.37126234 37.4086957,5.73472208 38.3634783,6.47744416 C39.3182609,7.22016623 39.8817391,8.32634805 40.0695652,9.82759481 L38.5043478,9.82759481 C38.2852174,8.87943896 37.893913,8.12091429 37.2991304,7.56782338 Z" id="Path"></path>
                        <path d="M44.2173913,0.788509091 L44.2173913,8.0102961 L44.2643478,8.0102961 C44.5617391,7.22016623 45.093913,6.58806234 45.8608696,6.11398442 C46.6278261,5.63990649 47.4573913,5.40286753 48.3808696,5.40286753 C49.2730435,5.40286753 50.0243478,5.51348571 50.6347826,5.75052468 C51.2452174,5.98756364 51.7304348,6.31941818 52.0904348,6.74608831 C52.4504348,7.17275844 52.7165217,7.69424416 52.8573913,8.32634805 C53.013913,8.94264935 53.0765217,9.63796364 53.0765217,10.4122909 L53.0765217,18.7718649 L51.5113043,18.7718649 L51.5113043,10.6651325 C51.5113043,10.1120416 51.4643478,9.59055584 51.3547826,9.11647792 C51.2608696,8.6424 51.0730435,8.21572987 50.8382609,7.86807273 C50.5878261,7.52041558 50.2591304,7.23596883 49.8365217,7.03053506 C49.413913,6.8251013 48.8817391,6.73028571 48.2556522,6.73028571 C47.6295652,6.73028571 47.066087,6.8409039 46.5652174,7.07794286 C46.08,7.29917922 45.6573913,7.61523117 45.3130435,8.0102961 C44.9686957,8.40536104 44.7026087,8.87943896 44.5147826,9.41672727 C44.3269565,9.96981818 44.2173913,10.5545143 44.2017391,11.1866182 L44.2017391,18.7560623 L42.6365217,18.7560623 L42.6365217,0.788509091 L44.2173913,0.788509091 Z" id="Path"></path>
                        <path d="M61.2,5.78212987 L61.2,7.10954805 L58.586087,7.10954805 L58.586087,15.864187 C58.586087,16.3856727 58.6643478,16.7965403 58.8052174,17.080987 C58.946087,17.3812364 59.306087,17.5392623 59.8695652,17.5708675 C60.3234783,17.5708675 60.7617391,17.5392623 61.2156522,17.4918545 L61.2156522,18.8192727 C60.9808696,18.8192727 60.746087,18.8350753 60.5113043,18.8508779 C60.2765217,18.8666805 60.0417391,18.8824831 59.8069565,18.8824831 C58.7582609,18.8824831 58.0226087,18.6770494 57.6156522,18.2661818 C57.1930435,17.8553143 57.0052174,17.0967896 57.0208696,15.9906078 L57.0208696,7.10954805 L54.7826087,7.10954805 L54.7826087,5.78212987 L57.0208696,5.78212987 L57.0208696,1.87888831 L58.586087,1.87888831 L58.586087,5.78212987 L61.2,5.78212987 Z" id="Path"></path>
                        <path d="M65.0504348,0.788509091 L65.0504348,3.33272727 L63.4852174,3.33272727 L63.4852174,0.788509091 L65.0504348,0.788509091 Z M65.0504348,5.78212987 L65.0504348,18.7718649 L63.4852174,18.7718649 L63.4852174,5.78212987 L65.0504348,5.78212987 Z" id="Shape"></path>
                        <path d="M69.8556522,5.78212987 L69.8556522,8.0260987 L69.9026087,8.0260987 C70.2,7.23596883 70.7321739,6.60386494 71.4991304,6.12978701 C72.266087,5.65570909 73.0956522,5.41867013 74.0191304,5.41867013 C74.9113043,5.41867013 75.6626087,5.52928831 76.2730435,5.76632727 C76.8834783,6.00336623 77.3686957,6.33522078 77.7286957,6.76189091 C78.0886957,7.18856104 78.3547826,7.71004675 78.4956522,8.34215065 C78.6521739,8.95845195 78.7147826,9.65376623 78.7147826,10.4280935 L78.7147826,18.7876675 L77.1495652,18.7876675 L77.1495652,10.6809351 C77.1495652,10.1278442 77.1026087,9.60635844 76.9930435,9.13228052 C76.8991304,8.6582026 76.7269565,8.23153247 76.4765217,7.88387532 C76.226087,7.53621818 75.8973913,7.25177143 75.4591304,7.04633766 C75.0365217,6.8409039 74.5043478,6.74608831 73.8782609,6.74608831 C73.2521739,6.74608831 72.6886957,6.85670649 72.2034783,7.09374545 C71.7182609,7.31498182 71.2956522,7.63103377 70.9513043,8.0260987 C70.6069565,8.42116364 70.3408696,8.89524156 70.1530435,9.43252987 C69.9652174,9.98562078 69.8556522,10.5703169 69.84,11.2024208 L69.84,18.7718649 L68.2747826,18.7718649 L68.2747826,5.78212987 L69.8556522,5.78212987 Z" id="Path"></path>
                        <path d="M92.5043478,20.2889143 C92.3008696,21.0632416 91.9721739,21.7111481 91.5182609,22.2484364 C91.0643478,22.7857247 90.4852174,23.1965922 89.7652174,23.481039 C89.0452174,23.7654857 88.1530435,23.9077091 87.1043478,23.9077091 C86.4626087,23.9077091 85.8208696,23.8286961 85.2104348,23.6864727 C84.6,23.5284468 84.0365217,23.3072104 83.5513043,22.9753558 C83.066087,22.6593039 82.6591304,22.2484364 82.3304348,21.7585558 C82.0017391,21.2686753 81.813913,20.6681766 81.7669565,19.9886649 L83.3321739,19.9886649 C83.4104348,20.4785455 83.5826087,20.889413 83.8173913,21.2054649 C84.0521739,21.5373195 84.3495652,21.790161 84.693913,21.9955948 C85.0382609,22.2010286 85.413913,22.3432519 85.8208696,22.4380675 C86.2434783,22.5328831 86.666087,22.5802909 87.0886957,22.5802909 C88.5443478,22.5802909 89.6086957,22.1536208 90.2504348,21.3160831 C90.8921739,20.4785455 91.2208696,19.2617455 91.2208696,17.6972883 L91.2208696,15.9432 L91.173913,15.9432 C90.813913,16.7491325 90.266087,17.397039 89.5617391,17.8869195 C88.8573913,18.3768 88.0278261,18.613839 87.0886957,18.613839 C86.0556522,18.613839 85.1791304,18.4400104 84.4434783,18.0923532 C83.7078261,17.7446961 83.1130435,17.2706182 82.6434783,16.6701195 C82.173913,16.0696208 81.8295652,15.3585039 81.6104348,14.5367688 C81.3913043,13.7308364 81.2817391,12.8616935 81.2817391,11.9293403 C81.2817391,11.0443948 81.4069565,10.1910545 81.6730435,9.40092468 C81.9234783,8.61079481 82.2991304,7.91548052 82.8,7.31498182 C83.2852174,6.71448312 83.8956522,6.25620779 84.6156522,5.90855065 C85.3356522,5.56089351 86.1652174,5.38706494 87.0886957,5.38706494 C87.573913,5.38706494 88.0278261,5.45027532 88.4504348,5.5924987 C88.8730435,5.73472208 89.2643478,5.90855065 89.6086957,6.16139221 C89.9530435,6.39843117 90.266087,6.68287792 90.5478261,6.99892987 C90.8295652,7.31498182 91.0330435,7.64683636 91.1895652,8.0102961 L91.2365217,8.0102961 L91.2365217,5.78212987 L92.8017391,5.78212987 L92.8017391,17.7130909 C92.8173913,18.6612468 92.7078261,19.514587 92.5043478,20.2889143 Z M88.9043478,16.8281455 C89.4208696,16.5278961 89.8591304,16.1486338 90.2034783,15.6745558 C90.5478261,15.2004779 90.813913,14.647387 90.986087,14.0310857 C91.1582609,13.4147844 91.2521739,12.7668779 91.2521739,12.1189714 C91.2521739,11.4868675 91.173913,10.838961 91.0330435,10.2068571 C90.8765217,9.57475325 90.6417391,8.99005714 90.3130435,8.46857143 C89.9843478,7.94708571 89.546087,7.53621818 89.0295652,7.20436364 C88.5130435,6.88831169 87.8713043,6.73028571 87.12,6.73028571 C86.3686957,6.73028571 85.7269565,6.88831169 85.1947826,7.18856104 C84.6626087,7.50461299 84.2243478,7.89967792 83.88,8.40536104 C83.5356522,8.91104416 83.2852174,9.47993766 83.1130435,10.1278442 C82.9565217,10.7757506 82.8782609,11.4394597 82.8782609,12.1031688 C82.8782609,12.7510753 82.9565217,13.3989818 83.1286957,14.0152831 C83.3008696,14.6315844 83.5513043,15.1846753 83.8956522,15.6587532 C84.24,16.1328312 84.6782609,16.5278961 85.2104348,16.8123429 C85.7426087,17.1125922 86.3686957,17.2548156 87.1043478,17.2548156 C87.7930435,17.2706182 88.3878261,17.1283948 88.9043478,16.8281455 Z" id="Shape"></path>
                        <polygon id="Path" points="5.29043478 27.6687273 5.29043478 42.3177351 13.9617391 42.3177351 13.9617391 45.6362805 1.3773913 45.6362805 1.3773913 27.6687273"></polygon>
                        <path d="M20.0973913,42.5231688 C20.6295652,43.0446545 21.3965217,43.2974961 22.3826087,43.2974961 C23.1026087,43.2974961 23.7130435,43.1236675 24.2295652,42.7602078 C24.746087,42.3967481 25.0591304,42.0174857 25.1843478,41.6224208 L28.2991304,41.6224208 C27.7982609,43.1868779 27.0313043,44.2930597 26.013913,44.9725714 C24.9808696,45.6362805 23.7443478,45.9839377 22.2730435,45.9839377 C21.2556522,45.9839377 20.3478261,45.8259117 19.533913,45.4940571 C18.72,45.1622026 18.0313043,44.7039273 17.4678261,44.1034286 C16.9043478,43.5029299 16.466087,42.7760104 16.1530435,41.9384727 C15.84,41.1009351 15.6991304,40.1843844 15.6991304,39.1730182 C15.6991304,38.1932571 15.8556522,37.2925091 16.1686957,36.4549714 C16.4817391,35.6174338 16.9356522,34.8905143 17.5147826,34.274213 C18.093913,33.6579117 18.7826087,33.1838338 19.5965217,32.820374 C20.3947826,32.4727169 21.3026087,32.2988883 22.2730435,32.2988883 C23.3686957,32.2988883 24.3234783,32.5201247 25.1373913,32.9467948 C25.9513043,33.3734649 26.6243478,33.9423584 27.1408696,34.6692779 C27.6573913,35.3961974 28.0486957,36.2179325 28.2678261,37.1344831 C28.5026087,38.0510338 28.5808696,39.0149922 28.5182609,40.0263584 L19.2208696,40.0263584 C19.2678261,41.1641455 19.5652174,42.0016831 20.0973913,42.5231688 Z M24.0886957,35.6648416 C23.666087,35.1907636 23.0243478,34.9537247 22.1634783,34.9537247 C21.6,34.9537247 21.1304348,35.0485403 20.7547826,35.2381714 C20.3791304,35.4278026 20.0817391,35.6648416 19.8626087,35.9492883 C19.6434783,36.2337351 19.4869565,36.5339844 19.3930435,36.8500364 C19.2991304,37.1660883 19.2521739,37.4505351 19.2365217,37.7033766 L24.9965217,37.7033766 C24.8086957,36.8342338 24.5269565,36.1389195 24.0886957,35.6648416 Z" id="Shape"></path>
                        <polygon id="Path" points="36.9234783 35.3171844 30.7252174 35.3171844 30.7252174 32.6307429 41.5878261 32.6307429 41.5878261 35.3171844 34.8886957 42.9340364 42.0730435 42.9340364 42.0730435 45.6204779 30.2086957 45.6204779 30.2086957 42.9340364"></polygon>
                        <path d="M48.0365217,42.5231688 C48.5686957,43.0446545 49.3356522,43.2974961 50.3217391,43.2974961 C51.0417391,43.2974961 51.6521739,43.1236675 52.1686957,42.7602078 C52.6852174,42.3967481 52.9982609,42.0174857 53.1234783,41.6224208 L56.2382609,41.6224208 C55.7373913,43.1868779 54.9704348,44.2930597 53.9530435,44.9725714 C52.92,45.6362805 51.6834783,45.9839377 50.2121739,45.9839377 C49.1947826,45.9839377 48.2869565,45.8259117 47.4730435,45.4940571 C46.6591304,45.1622026 45.9704348,44.7039273 45.4069565,44.1034286 C44.8434783,43.5029299 44.4052174,42.7760104 44.0921739,41.9384727 C43.7791304,41.1009351 43.6382609,40.1843844 43.6382609,39.1730182 C43.6382609,38.1932571 43.7947826,37.2925091 44.1078261,36.4549714 C44.4208696,35.6174338 44.8747826,34.8905143 45.453913,34.274213 C46.0330435,33.6579117 46.7217391,33.1838338 47.5356522,32.820374 C48.333913,32.4727169 49.2417391,32.2988883 50.2121739,32.2988883 C51.3078261,32.2988883 52.2626087,32.5201247 53.0765217,32.9467948 C53.8904348,33.3734649 54.5634783,33.9423584 55.08,34.6692779 C55.5965217,35.3961974 55.9878261,36.2179325 56.2069565,37.1344831 C56.4417391,38.0510338 56.52,39.0149922 56.4573913,40.0263584 L47.16,40.0263584 C47.2226087,41.1641455 47.5043478,42.0016831 48.0365217,42.5231688 Z M52.0434783,35.6648416 C51.6208696,35.1907636 50.9791304,34.9537247 50.1182609,34.9537247 C49.5547826,34.9537247 49.0852174,35.0485403 48.7095652,35.2381714 C48.333913,35.4278026 48.0365217,35.6648416 47.8173913,35.9492883 C47.5982609,36.2337351 47.4417391,36.5339844 47.3478261,36.8500364 C47.253913,37.1660883 47.2069565,37.4505351 47.1913043,37.7033766 L52.9513043,37.7033766 C52.7634783,36.8342338 52.466087,36.1389195 52.0434783,35.6648416 Z" id="Shape"></path>
                        <path d="M62.2173913,32.6307429 L62.2173913,34.4480416 L62.2956522,34.4480416 C62.7495652,33.6895169 63.3286957,33.136426 64.0330435,32.8045714 C64.7530435,32.4569143 65.4730435,32.2830857 66.2243478,32.2830857 C67.1791304,32.2830857 67.946087,32.4095065 68.5565217,32.6781506 C69.1669565,32.9309922 69.6365217,33.2944519 69.9965217,33.7527273 C70.3408696,34.2110026 70.5913043,34.7798961 70.7321739,35.4436052 C70.8730435,36.1073143 70.9513043,36.8342338 70.9513043,37.6401662 L70.9513043,45.6362805 L67.413913,45.6362805 L67.413913,38.2880727 C67.413913,37.2134961 67.2417391,36.4075636 66.9130435,35.8860779 C66.5843478,35.3645922 65.9895652,35.0959481 65.1443478,35.0959481 C64.173913,35.0959481 63.4852174,35.3803948 63.0469565,35.9650909 C62.6086957,36.549787 62.4052174,37.4979429 62.4052174,38.825361 L62.4052174,45.6520831 L58.8678261,45.6520831 L58.8678261,32.6465455 L62.2173913,32.6465455 L62.2173913,32.6307429 Z" id="Path"></path>
                        <path d="M85.1478261,42.5231688 C85.68,43.0446545 86.4469565,43.2974961 87.4486957,43.2974961 C88.1686957,43.2974961 88.7791304,43.1236675 89.2956522,42.7602078 C89.8121739,42.3967481 90.1252174,42.0174857 90.2504348,41.6224208 L93.3652174,41.6224208 C92.8643478,43.1868779 92.0973913,44.2930597 91.0643478,44.9725714 C90.0313043,45.6362805 88.7947826,45.9839377 87.3234783,45.9839377 C86.306087,45.9839377 85.3982609,45.8259117 84.5843478,45.4940571 C83.7704348,45.1622026 83.0817391,44.7039273 82.5182609,44.1034286 C81.9547826,43.5029299 81.5165217,42.7760104 81.2034783,41.9384727 C80.8904348,41.1009351 80.7495652,40.1843844 80.7495652,39.1730182 C80.7495652,38.1932571 80.906087,37.2925091 81.2191304,36.4549714 C81.5321739,35.6174338 81.986087,34.8905143 82.5652174,34.274213 C83.1443478,33.6579117 83.8330435,33.1838338 84.6469565,32.820374 C85.4452174,32.4727169 86.3530435,32.2988883 87.3234783,32.2988883 C88.4191304,32.2988883 89.373913,32.5201247 90.1878261,32.9467948 C91.0017391,33.3734649 91.6747826,33.9423584 92.1913043,34.6692779 C92.7078261,35.3961974 93.0991304,36.2179325 93.3182609,37.1344831 C93.5530435,38.0510338 93.6313043,39.0149922 93.5686957,40.0263584 L84.2713043,40.0263584 C84.333913,41.1641455 84.6156522,42.0016831 85.1478261,42.5231688 Z M89.1547826,35.6648416 C88.7321739,35.1907636 88.0904348,34.9537247 87.2295652,34.9537247 C86.666087,34.9537247 86.1965217,35.0485403 85.8208696,35.2381714 C85.4452174,35.4278026 85.1478261,35.6648416 84.9286957,35.9492883 C84.7095652,36.2337351 84.5530435,36.5339844 84.4591304,36.8500364 C84.3652174,37.1660883 84.3182609,37.4505351 84.3026087,37.7033766 L90.0626087,37.7033766 C89.8747826,36.8342338 89.5773913,36.1389195 89.1547826,35.6648416 Z" id="Shape"></path>
                        <path d="M98.9843478,32.6307429 L98.9843478,34.4480416 L99.0626087,34.4480416 C99.5165217,33.6895169 100.095652,33.136426 100.8,32.8045714 C101.52,32.4569143 102.24,32.2830857 102.991304,32.2830857 C103.946087,32.2830857 104.713043,32.4095065 105.323478,32.6781506 C105.933913,32.9309922 106.403478,33.2944519 106.763478,33.7527273 C107.107826,34.2110026 107.358261,34.7798961 107.49913,35.4436052 C107.64,36.1073143 107.718261,36.8342338 107.718261,37.6401662 L107.718261,45.6362805 L104.18087,45.6362805 L104.18087,38.2880727 C104.18087,37.2134961 104.008696,36.4075636 103.68,35.8860779 C103.351304,35.3645922 102.756522,35.0959481 101.911304,35.0959481 C100.94087,35.0959481 100.252174,35.3803948 99.813913,35.9650909 C99.3756522,36.549787 99.1721739,37.4979429 99.1721739,38.825361 L99.1721739,45.6520831 L95.6347826,45.6520831 L95.6347826,32.6465455 L98.9843478,32.6465455 L98.9843478,32.6307429 Z" id="Path"></path>
                        <path d="M4.36695652,68.0759688 C4.58608696,68.502639 4.86782609,68.8344935 5.22782609,69.0873351 C5.58782609,69.3401766 6.01043478,69.5456104 6.48,69.6720312 C6.96521739,69.7984519 7.46608696,69.8616623 7.9826087,69.8616623 C8.32695652,69.8616623 8.7026087,69.8300571 9.10956522,69.7668468 C9.50086957,69.7036364 9.87652174,69.5930182 10.2365217,69.4349922 C10.5808696,69.2611636 10.8782609,69.0399273 11.1130435,68.7396779 C11.3478261,68.4394286 11.4573913,68.0759688 11.4573913,67.6176935 C11.4573913,67.127813 11.3008696,66.7327481 11.0034783,66.4324987 C10.6904348,66.1322494 10.2991304,65.8794078 9.79826087,65.673974 C9.2973913,65.4685403 8.73391304,65.2947117 8.10782609,65.1524883 C7.48173913,64.9944623 6.84,64.8364364 6.1826087,64.6468052 C5.52521739,64.4729766 4.86782609,64.2675429 4.24173913,64.0305039 C3.61565217,63.7934649 3.05217391,63.477413 2.55130435,63.0823481 C2.05043478,62.7030857 1.64347826,62.2132052 1.34608696,61.6285091 C1.03304348,61.043813 0.892173913,60.3484987 0.892173913,59.5267636 C0.892173913,58.610213 1.08,57.8042805 1.47130435,57.1247688 C1.8626087,56.4452571 2.37913043,55.8763636 3.00521739,55.4338909 C3.63130435,54.9756156 4.35130435,54.643761 5.14956522,54.4225247 C5.94782609,54.2012883 6.74608696,54.0906701 7.54434783,54.0906701 C8.46782609,54.0906701 9.37565217,54.2012883 10.2208696,54.4067221 C11.0817391,54.6121558 11.8330435,54.959813 12.506087,55.4180883 C13.1634783,55.8921662 13.6956522,56.4926649 14.0869565,57.2195844 C14.4782609,57.9465039 14.666087,58.8314494 14.666087,59.8744208 L10.8782609,59.8744208 C10.8469565,59.3371325 10.7373913,58.8946597 10.5495652,58.5470026 C10.3617391,58.1993455 10.1113043,57.9148987 9.7826087,57.7094649 C9.46956522,57.5040312 9.10956522,57.3618078 8.7026087,57.2827948 C8.29565217,57.2037818 7.8573913,57.156374 7.37217391,57.156374 C7.05913043,57.156374 6.74608696,57.1879792 6.4173913,57.2511896 C6.10434783,57.3144 5.8226087,57.4408208 5.55652174,57.5988468 C5.30608696,57.7726753 5.08695652,57.9781091 4.91478261,58.2309506 C4.7426087,58.4837922 4.66434783,58.7998442 4.66434783,59.1949091 C4.66434783,59.5425662 4.72695652,59.827013 4.86782609,60.0482494 C4.99304348,60.2694857 5.25913043,60.4749195 5.65043478,60.6487481 C6.04173913,60.8383792 6.57391304,61.0122078 7.2626087,61.201839 C7.95130435,61.3914701 8.85913043,61.6285091 9.97043478,61.9129558 C10.2991304,61.9761662 10.7686957,62.102587 11.3478261,62.2764156 C11.9426087,62.4502442 12.5217391,62.7346909 13.1008696,63.1139532 C13.68,63.4932156 14.1808696,64.0147013 14.6034783,64.6626078 C15.026087,65.3105143 15.2452174,66.1322494 15.2452174,67.1436156 C15.2452174,67.9653506 15.0886957,68.7238753 14.7756522,69.4349922 C14.4626087,70.1461091 13.9930435,70.7466078 13.3669565,71.2522909 C12.7408696,71.757974 11.973913,72.1688416 11.0504348,72.4532883 C10.1269565,72.7377351 9.0626087,72.8799584 7.84173913,72.8799584 C6.85565217,72.8799584 5.91652174,72.7535377 4.99304348,72.5164987 C4.06956522,72.2794597 3.25565217,71.8843948 2.55130435,71.3787117 C1.84695652,70.857226 1.28347826,70.1935169 0.876521739,69.3875844 C0.453913043,68.5816519 0.266086957,67.6334961 0.28173913,66.5115117 L4.06956522,66.5115117 C4.03826087,67.1594182 4.14782609,67.6651013 4.36695652,68.0759688 Z" id="Path"></path>
                        <path d="M23.306087,61.8497455 C22.7426087,61.8497455 22.2730435,61.9761662 21.8817391,62.2448104 C21.506087,62.4976519 21.1930435,62.8453091 20.9426087,63.2561766 C20.7078261,63.6670442 20.5356522,64.1253195 20.426087,64.6152 C20.3321739,65.1050805 20.2695652,65.594961 20.2695652,66.0848416 C20.2695652,66.5589195 20.3165217,67.0329974 20.426087,67.5228779 C20.52,68.0127584 20.6921739,68.4552312 20.9113043,68.8502961 C21.1304348,69.245361 21.4434783,69.561413 21.8191304,69.8142545 C22.1947826,70.0670961 22.6643478,70.1935169 23.2121739,70.1935169 C24.0573913,70.1935169 24.7147826,69.9564779 25.1686957,69.4824 C25.6226087,69.0083221 25.92,68.3604156 26.0295652,67.5544831 L29.4417391,67.5544831 C29.2069565,69.2769662 28.5495652,70.6043844 27.453913,71.5051325 C26.3582609,72.4058805 24.9495652,72.8641558 23.2434783,72.8641558 C22.2730435,72.8641558 21.3965217,72.7061299 20.5826087,72.3742753 C19.7843478,72.0424208 19.0956522,71.5841455 18.5321739,70.9994494 C17.9686957,70.4147532 17.5304348,69.719439 17.2173913,68.8977039 C16.9043478,68.0917714 16.7478261,67.1910234 16.7478261,66.2112623 C16.7478261,65.1998961 16.8886957,64.2675429 17.186087,63.3984 C17.4834783,62.5292571 17.906087,61.7865351 18.4695652,61.1544312 C19.0330435,60.5223273 19.7217391,60.0324468 20.5356522,59.6847896 C21.3495652,59.3371325 22.2730435,59.1633039 23.3217391,59.1633039 C24.0886957,59.1633039 24.8243478,59.2581195 25.5286957,59.4635532 C26.2330435,59.668987 26.8591304,59.9692364 27.4226087,60.3801039 C27.986087,60.7909714 28.44,61.2966545 28.7843478,61.9129558 C29.1286957,62.5292571 29.3321739,63.2561766 29.3791304,64.0937143 L25.92,64.0937143 C25.6852174,62.5924675 24.8243478,61.8497455 23.306087,61.8497455 Z" id="Path"></path>
                        <path d="M34.9982609,54.5489455 L34.9982609,61.3124571 L35.0765217,61.3124571 C35.5304348,60.5539325 36.093913,60.0008416 36.7982609,59.668987 C37.5026087,59.3213299 38.1756522,59.1475013 38.8486957,59.1475013 C39.8034783,59.1475013 40.5704348,59.2739221 41.1808696,59.5425662 C41.7913043,59.7954078 42.2608696,60.1588675 42.6208696,60.6171429 C42.9652174,61.0754182 43.2156522,61.6443117 43.3565217,62.3080208 C43.4973913,62.9717299 43.5756522,63.6986494 43.5756522,64.5045818 L43.5756522,72.5006961 L40.0382609,72.5006961 L40.0382609,65.1524883 C40.0382609,64.0779117 39.866087,63.2719792 39.5373913,62.7504935 C39.2086957,62.2290078 38.613913,61.9603636 37.7686957,61.9603636 C36.7982609,61.9603636 36.1095652,62.2448104 35.6713043,62.8295065 C35.2330435,63.4142026 35.0295652,64.3623584 35.0295652,65.6897766 L35.0295652,72.5164987 L31.4608696,72.5164987 L31.4608696,54.5489455 L34.9982609,54.5489455 Z" id="Path"></path>
                        <path d="M49.586087,59.510961 L49.586087,61.9287584 L49.6330435,61.9287584 C49.8052174,61.5336935 50.0243478,61.1544312 50.306087,60.806774 C50.5878261,60.4591169 50.9165217,60.1746701 51.2765217,59.9218286 C51.6365217,59.6847896 52.0278261,59.4951584 52.4504348,59.3529351 C52.8730435,59.2265143 53.2956522,59.1475013 53.7495652,59.1475013 C53.9843478,59.1475013 54.2347826,59.1949091 54.5165217,59.2739221 L54.5165217,62.5924675 C54.3443478,62.5608623 54.1565217,62.5292571 53.9217391,62.4976519 C53.6869565,62.4660468 53.4678261,62.4660468 53.2486957,62.4660468 C52.6069565,62.4660468 52.0591304,62.5766649 51.6052174,62.7979013 C51.1513043,63.0191377 50.7913043,63.319387 50.5252174,63.6986494 C50.2434783,64.0779117 50.0556522,64.5203844 49.946087,65.0260675 C49.8365217,65.5317506 49.773913,66.069039 49.773913,66.6537351 L49.773913,72.5164987 L46.2365217,72.5164987 L46.2365217,59.510961 L49.586087,59.510961 Z" id="Path"></path>
                        <path d="M56.0347826,57.4882286 L56.0347826,54.5489455 L59.5721739,54.5489455 L59.5721739,57.4882286 L56.0347826,57.4882286 Z M59.5721739,59.510961 L59.5721739,72.5164987 L56.0347826,72.5164987 L56.0347826,59.510961 L59.5721739,59.510961 Z" id="Shape"></path>
                        <path d="M61.0904348,74.1283636 C61.4504348,74.1283636 61.7791304,74.0493506 62.0452174,73.9071273 C62.3269565,73.7649039 62.4521739,73.4488519 62.4521739,72.9589714 L62.4521739,59.510961 L65.9895652,59.510961 L65.9895652,73.1486026 C65.9895652,73.8123117 65.9113043,74.3970078 65.7704348,74.8868883 C65.6295652,75.3767688 65.3947826,75.7876364 65.0504348,76.1036883 C64.706087,76.4355429 64.2521739,76.6725818 63.6730435,76.8306078 C63.093913,76.9886338 62.3582609,77.0676468 61.4504348,77.0676468 C61.0278261,77.0676468 60.6678261,77.0360416 60.3234783,76.9728312 L60.3234783,74.0335481 C60.5269565,74.0967584 60.7773913,74.1283636 61.0904348,74.1283636 Z M62.4678261,57.4882286 L62.4678261,54.5489455 L66.0052174,54.5489455 L66.0052174,57.4882286 L62.4678261,57.4882286 Z" id="Shape"></path>
                        <polygon id="Path" points="72.0626087 72.5164987 67.6486957 59.510961 71.3582609 59.510961 74.0817391 68.3920208 74.1286957 68.3920208 76.8521739 59.510961 80.373913 59.510961 76.0069565 72.5164987"></polygon>
                        <path d="M85.1165217,69.3875844 C85.6486957,69.9090701 86.4156522,70.1619117 87.4017391,70.1619117 C88.1217391,70.1619117 88.7321739,69.9880831 89.2486957,69.6246234 C89.7652174,69.2611636 90.0782609,68.8819013 90.2034783,68.4868364 L93.3182609,68.4868364 C92.8173913,70.0512935 92.0504348,71.1574753 91.0330435,71.836987 C90,72.5006961 88.7634783,72.8483532 87.2921739,72.8483532 C86.2747826,72.8483532 85.3669565,72.6903273 84.5530435,72.3584727 C83.7391304,72.0266182 83.0504348,71.5683429 82.4869565,70.9678442 C81.9234783,70.3673455 81.4852174,69.640426 81.1721739,68.8028883 C80.8591304,67.9653506 80.7182609,67.0488 80.7182609,66.0374338 C80.7182609,65.0576727 80.8747826,64.1569247 81.1878261,63.319387 C81.5008696,62.4818494 81.9547826,61.7549299 82.533913,61.1386286 C83.1130435,60.5223273 83.8017391,60.0482494 84.6156522,59.6847896 C85.413913,59.3371325 86.3217391,59.1633039 87.2921739,59.1633039 C88.3878261,59.1633039 89.3426087,59.3845403 90.1565217,59.8112104 C90.9704348,60.2378805 91.6434783,60.806774 92.16,61.5336935 C92.6765217,62.260613 93.0678261,63.0823481 93.2869565,63.9988987 C93.5217391,64.9154494 93.6,65.8794078 93.5373913,66.890774 L84.24,66.890774 C84.2869565,68.028561 84.5843478,68.8660987 85.1165217,69.3875844 Z M89.1234783,62.5450597 C88.7008696,62.0709818 88.0591304,61.8339429 87.1982609,61.8339429 C86.6347826,61.8339429 86.1652174,61.9287584 85.7895652,62.1183896 C85.413913,62.3080208 85.1165217,62.5450597 84.8973913,62.8295065 C84.6782609,63.1139532 84.5217391,63.4142026 84.4278261,63.7302545 C84.333913,64.0463065 84.2869565,64.3307532 84.2713043,64.5835948 L90.0313043,64.5835948 C89.8278261,63.6986494 89.546087,63.0191377 89.1234783,62.5450597 Z" id="Shape"></path>
                        <path d="M98.9686957,59.510961 L98.9686957,61.3282597 L99.0469565,61.3282597 C99.5008696,60.5697351 100.08,60.0166442 100.784348,59.6847896 C101.504348,59.3371325 102.224348,59.1633039 102.975652,59.1633039 C103.930435,59.1633039 104.697391,59.2897247 105.307826,59.5583688 C105.918261,59.8112104 106.387826,60.1746701 106.747826,60.6329455 C107.092174,61.0912208 107.342609,61.6601143 107.483478,62.3238234 C107.624348,62.9875325 107.702609,63.7144519 107.702609,64.5203844 L107.702609,72.5164987 L104.165217,72.5164987 L104.165217,65.1682909 C104.165217,64.0937143 103.993043,63.2877818 103.664348,62.7662961 C103.335652,62.2448104 102.74087,61.9761662 101.895652,61.9761662 C100.925217,61.9761662 100.236522,62.260613 99.7982609,62.8453091 C99.36,63.4300052 99.1565217,64.378161 99.1565217,65.7055792 L99.1565217,72.5323013 L95.6191304,72.5323013 L95.6191304,59.510961 L98.9686957,59.510961 Z" id="Path"></path>
                    </g>
                    <g id="Group">
                        <rect id="Rectangle" fill="#000000" x="1.60121951" y="38.7803871" width="33.704878" height="33.479474"></rect>
                        <path d="M63.795122,17.158883 C57.6439024,27.2216223 45.8646341,34.0403487 32.3731707,34.0403487 C18.8817073,34.0403487 7.11829268,27.23737 0.951219512,17.158883 C7.10243902,7.08039598 18.8658537,0.277417258 32.3731707,0.277417258 C45.8804878,0.277417258 57.6439024,7.09614362 63.795122,17.158883 Z" id="Path" fill="#000000"></path>
                        <ellipse id="Oval" fill="#AD9150" cx="32.3731707" cy="17.158883" rx="11.5414634" ry="11.464279"></ellipse>
                        <ellipse id="Oval" fill="#000000" cx="32.3731707" cy="17.158883" rx="5.13658537" ry="5.10223404"></ellipse>
                        <polygon id="Path" fill="#AD9150" points="64.4926829 55.5201241 35.3060976 38.7803871 35.3060976 72.2598611"></polygon>
                        <polygon id="Path" fill="#000000" points="64.4926829 55.5201241 52.1585366 48.4336879 52.1585366 62.5908126"></polygon>
                    </g>
                </g>
            </g>
        </g>
    </g>
</svg>