<?xml version="1.0" encoding="UTF-8"?>
<svg width="226px" height="81px" viewBox="0 0 226 81" version="1.1" xmlns="http://www.w3.org/2000/svg" xmlns:xlink="http://www.w3.org/1999/xlink">
    <!-- Generator: Sketch 51.1 (57501) - http://www.bohemiancoding.com/sketch -->
    <title>Group</title>
    <desc>Created with Sketch.</desc>
    <defs>
        <polygon id="path-1" points="0 0.573279432 15.1068925 0.573279432 15.1068925 21.7785259 0 21.7785259"></polygon>
        <polygon id="path-3" points="0.429883178 0.677467241 9.77544393 0.677467241 9.77544393 11.8706897 0.429883178 11.8706897"></polygon>
    </defs>
    <g id="Designs" stroke="none" stroke-width="1" fill="none" fill-rule="evenodd">
        <g id="activiteiten-3" transform="translate(-122.000000, -30.000000)">
            <g id="Menu" transform="translate(122.000000, 30.000000)">
                <g id="Group">
                    <g id="elements/logos/fullsize">
                        <path d="M100.539603,55.9674388 C98.1571262,55.9674388 96.8933411,54.2790078 96.8933411,51.0739216 C96.8933411,47.8157664 98.7031542,46.3849991 100.568341,46.3849991 C103.010397,46.3849991 104.187266,48.1006629 104.187266,51.1339733 C104.187266,54.4235509 102.522547,55.9674388 100.539603,55.9674388 M100.829089,43.8097578 C96.4910047,43.8097578 93.7068925,47.0986371 93.7068925,51.3902405 C93.7068925,56.3954819 96.2912383,58.5985422 100.253621,58.5985422 C104.47465,58.5985422 107.34778,55.3103612 107.34778,50.9293784 C107.34778,45.9255336 104.64778,43.8097578 100.829089,43.8097578" id="Fill-1" fill="#090B09"></path>
                        <path d="M139.802874,49.2452069 C140.06222,47.3277414 141.268528,46.0701466 142.991425,46.0701466 C144.799836,46.0701466 145.920631,47.2991121 145.862453,49.2452069 L139.802874,49.2452069 Z M147.649836,55.4654483 C146.554276,55.9088534 145.238621,56.1693103 143.967827,56.1693103 C141.123435,56.1693103 139.661285,54.6784914 139.744696,51.3903103 L148.250537,51.3826293 C148.606612,51.3826293 148.861752,51.1221724 148.898902,50.7374224 L148.913621,50.6291897 C148.929042,50.3868879 148.93465,50.1627414 148.93465,49.9609397 C148.93465,46.582681 147.182313,43.8098276 143.106379,43.8098276 C138.941425,43.8098276 136.587687,47.0142155 136.587687,51.3030259 C136.587687,56.3110603 139.025537,58.5986121 143.479276,58.5986121 C144.985584,58.5986121 146.493294,58.3667845 147.799136,57.9177931 L147.893061,57.8835776 C148.269463,57.7543966 148.406846,57.4688017 148.339556,57.0861466 L148.180444,55.7273017 L148.180444,55.7245086 C148.141192,55.5010603 147.914089,55.3635 147.66736,55.4612586 L147.649836,55.4654483 Z" id="Fill-3" fill="#090B09"></path>
                        <path d="M154.595047,49.2452069 C154.854393,47.3277414 156.06,46.0701466 157.783598,46.0701466 C159.592009,46.0701466 160.713505,47.2991121 160.654626,49.2452069 L154.595047,49.2452069 Z M162.441308,55.4654483 C161.346449,55.9088534 160.030794,56.1693103 158.759299,56.1693103 C155.915607,56.1693103 154.453458,54.6784914 154.536869,51.3903103 L163.04271,51.3826293 C163.398084,51.3826293 163.653925,51.1221724 163.690374,50.7374224 L163.705093,50.6291897 C163.719813,50.3868879 163.726121,50.1627414 163.726121,49.9609397 C163.726121,46.582681 161.973785,43.8098276 157.898551,43.8098276 C153.733598,43.8098276 151.379159,47.0142155 151.379159,51.3030259 C151.379159,56.3110603 153.81771,58.5986121 158.271449,58.5986121 C159.777056,58.5986121 161.285467,58.3667845 162.589907,57.9177931 L162.685234,57.8835776 C163.061636,57.7543966 163.199019,57.4688017 163.131028,57.0861466 L162.972617,55.7273017 L162.972617,55.7245086 C162.933364,55.5010603 162.705561,55.3635 162.459533,55.4612586 L162.441308,55.4654483 Z" id="Fill-5" fill="#090B09"></path>
                        <path d="M19.7089486,49.2452069 C19.9689953,47.3277414 21.1746028,46.0701466 22.8982009,46.0701466 C24.7059112,46.0701466 25.8274065,47.2991121 25.769229,49.2452069 L19.7089486,49.2452069 Z M27.5559112,55.4654483 C26.4617523,55.9088534 25.1453972,56.1693103 23.8746028,56.1693103 C21.0302103,56.1693103 19.5673598,54.6784914 19.651472,51.3903103 L28.1573131,51.3826293 C28.5126869,51.3826293 28.768528,51.1221724 28.8056776,50.7374224 L28.8196963,50.6291897 C28.8344159,50.3868879 28.8414252,50.1627414 28.8414252,49.9609397 C28.8414252,46.582681 27.0883879,43.8098276 23.0124533,43.8098276 C18.8482009,43.8098276 16.4937617,47.0142155 16.4937617,51.3030259 C16.4937617,56.3110603 18.933014,58.5986121 23.3860514,58.5986121 C24.8923598,58.5986121 26.3993692,58.3667845 27.7045093,57.9177931 L27.7991355,57.8835776 C28.1762383,57.7543966 28.3136215,57.4688017 28.2449299,57.0861466 L28.0872196,55.7273017 L28.0872196,55.7245086 C28.0479673,55.5010603 27.8201636,55.3635 27.5734346,55.4612586 L27.5559112,55.4654483 Z" id="Fill-7" fill="#090B09"></path>
                        <path d="M82.4316589,37.999125 C82.4316589,37.6464957 82.140771,37.3574095 81.7860981,37.3574095 L77.8363318,37.3574095 C77.6106308,37.3574095 77.4045561,37.4474871 77.2461449,37.5906336 C77.0540888,37.763806 76.9307243,38.0123922 76.9307243,38.2910043 L76.9307243,38.8531164 C76.9307243,39.1296336 77.0505841,39.3754267 77.2398364,39.545806 C77.3982477,39.6938405 77.6071262,39.7874095 77.8363318,39.7874095 C77.8363318,39.7874095 79.344743,39.7846164 79.344743,39.7909009 L79.3195093,57.669556 C79.3209112,58.0242802 79.6132009,58.3133664 79.9643692,58.3133664 L81.7903037,58.3133664 C82.1442757,58.3133664 82.4330607,58.0242802 82.4330607,57.669556 L82.4316589,37.999125 Z" id="Fill-9" fill="#090B09"></path>
                        <path d="M68.4766121,56.1106552 C67.5597897,56.1106552 66.8406308,56.0247672 66.2104907,55.8243621 L66.2104907,51.4203362 C66.2104907,49.0147759 67.4441355,46.3564397 69.7417991,46.3564397 C71.6651636,46.3564397 72.5840888,47.9289569 72.5840888,50.7863017 C72.5840888,54.6226293 70.8899299,56.1106552 68.4766121,56.1106552 Z M63.8175,58.1021379 C65.1583879,58.3940172 66.4999766,58.5406552 68.2179673,58.5406552 C72.9871262,58.5406552 75.8013785,55.4249483 75.8013785,50.5028017 C75.8013785,46.2118966 73.9340888,43.8098276 70.5450701,43.8098276 C68.6055841,43.8098276 67.0116589,44.7671638 66.1929673,46.31175 L66.1915654,37.9994741 C66.1894626,37.6461466 65.9006776,37.3577586 65.5439019,37.3577586 L61.6137617,37.3577586 L61.5969393,37.3577586 C61.3691355,37.3577586 61.1644626,37.4478362 61.0025467,37.5909828 C60.8125935,37.7641552 60.6913318,38.0127414 60.6913318,38.2913534 L60.6913318,38.8534655 C60.6913318,39.1292845 60.8104907,39.3757759 60.9983411,39.5461552 C61.1567523,39.6941897 61.3656308,39.7877586 61.5969393,39.7877586 C61.5969393,39.7877586 63.1249766,39.7814741 63.1284813,39.7849655 L63.1432009,57.3640603 C63.1067523,57.7173879 63.3653972,58.0365 63.7200701,58.0735086 L63.8175,58.1021379 Z" id="Fill-11" fill="#090B09"></path>
                        <g id="Group-15" stroke-width="1" transform="translate(0.000000, 36.819388)">
                            <mask id="mask-2" fill="white">
                                <use xlink:href="#path-1"></use>
                            </mask>
                            <g id="Clip-14"></g>
                            <path d="M6.08936916,19.2612414 C4.13516355,19.2612414 3.2442757,17.6600948 3.2442757,14.7985603 C3.2442757,10.9664224 4.91109813,9.477 7.3510514,9.477 C8.09544393,9.477 8.84053738,9.56428448 9.61366822,9.73326724 L9.61366822,14.3376983 C9.54778037,16.7153276 8.29591121,19.2612414 6.08936916,19.2612414 M14.8489486,19.4302241 C14.6849299,19.2542586 14.4543224,19.1453276 14.201285,19.1453276 L12.6459112,19.1453276 L12.6459112,1.2122069 C12.6459112,0.860275862 12.3557243,0.571887931 12.0017523,0.573284483 L8.1192757,0.586551724 C7.89287383,0.586551724 7.68609813,0.675232759 7.52698598,0.82187069 C7.33773364,0.994344828 7.21647196,1.24223276 7.21647196,1.52014655 L7.21647196,2.08156034 C7.21647196,2.35598276 7.33492991,2.60107759 7.5213785,2.77215517 C7.68119159,2.92018966 7.89077103,3.0144569 8.1192757,3.0144569 C8.1192757,3.0144569 9.61366822,3.02213793 9.61366822,3.0144569 L9.61366822,7.16081897 C8.84053738,7.1049569 8.15292056,7.04630172 7.46600467,7.04630172 C2.84334112,7.04630172 -0.00035046729,10.1948276 -0.00035046729,15.0855517 C-0.00035046729,19.2053793 1.75268692,21.7785259 5.25595794,21.7785259 C7.22067757,21.7785259 8.75151869,20.8281724 9.61366822,19.3932155 L9.61366822,20.9294224 C9.61366822,21.2813534 9.90315421,21.5718362 10.259229,21.5718362 L14.201285,21.5718362 C14.4038551,21.5718362 14.5896028,21.497819 14.7424065,21.3805086 C14.9610981,21.2087328 15.1068925,20.9398966 15.1068925,20.6375431 L15.1068925,20.0768276 C15.1068925,19.82475 15.0087617,19.5964138 14.8489486,19.4302241" id="Fill-13" fill="#090B09" mask="url(#mask-2)"></path>
                        </g>
                        <path d="M88.9111682,38.1426905 C87.8485514,38.1426905 86.9583645,39.0022681 86.9583645,40.0615526 C86.9583645,41.1194405 87.8485514,41.9776216 88.9111682,41.9776216 C90.0018224,41.9776216 90.8927103,41.1194405 90.8927103,40.0615526 C90.8927103,38.9729405 90.0018224,38.1426905 88.9111682,38.1426905" id="Fill-16" fill="#090B09"></path>
                        <path d="M90.4780374,44.7370681 C90.4780374,44.3851371 90.1871495,44.0946543 89.8317757,44.0946543 L85.8820093,44.0946543 C85.6563084,44.0946543 85.4495327,44.1847319 85.2918224,44.3306716 C85.0997664,44.4982578 84.9764019,44.7496371 84.9764019,45.030344 L84.9764019,45.5875681 C84.9764019,45.8640853 85.0969626,46.1098784 85.2841121,46.2844474 C85.4439252,46.4303871 85.6535047,46.5204647 85.8820093,46.5204647 C85.8820093,46.5204647 87.3834112,46.5232578 87.3876168,46.5204647 L87.4065421,57.6083871 C87.4086449,57.9610164 87.6974299,58.2508009 88.0528037,58.2508009 L89.8352804,58.2508009 C90.1920561,58.2508009 90.4815421,57.9610164 90.4815421,57.6083871 L90.4780374,44.7370681 Z" id="Fill-18" fill="#090B09"></path>
                        <path d="M57.0358178,38.1426905 C55.9725,38.1426905 55.0809112,39.0022681 55.0809112,40.0615526 C55.0809112,41.1194405 55.9725,41.9776216 57.0358178,41.9776216 C58.1278738,41.9776216 59.0159579,41.1194405 59.0159579,40.0615526 C59.0159579,38.9729405 58.1278738,38.1426905 57.0358178,38.1426905" id="Fill-20" fill="#241F20"></path>
                        <path d="M58.6033178,44.7370681 C58.6033178,44.3851371 58.3124299,44.0946543 57.9584579,44.0946543 L54.0072897,44.0946543 C53.7801869,44.0946543 53.575514,44.1847319 53.4185047,44.3306716 C53.2243458,44.4982578 53.1016822,44.7496371 53.1016822,45.030344 L53.1016822,45.5875681 C53.1016822,45.8640853 53.222243,46.1098784 53.4093925,46.2844474 C53.5699065,46.4303871 53.7780841,46.5204647 54.0072897,46.5204647 C54.0072897,46.5204647 55.5234112,46.5232578 55.5269159,46.5204647 L55.5318224,57.6083871 C55.5318224,57.9610164 55.8227103,58.2508009 56.1780841,58.2508009 L57.9605607,58.2508009 C58.3152336,58.2508009 58.6054206,57.9610164 58.6054206,57.6083871 L58.6033178,44.7370681 Z" id="Fill-22" fill="#090B09"></path>
                        <path d="M133.256285,48.3586759 C133.256285,45.8385983 132.222407,43.8094086 128.97778,43.8094086 C126.834322,43.8094086 125.229883,44.8037534 124.338294,46.3497362 L124.336893,37.9990552 C124.336893,37.6464259 124.048107,37.3573397 123.691332,37.3573397 L119.743668,37.3573397 C119.516565,37.3573397 119.310491,37.4481155 119.150678,37.5905638 C118.960023,37.7637362 118.838061,38.0123224 118.838061,38.2916328 L118.838061,38.8530466 C118.838061,39.1295638 118.95722,39.3753569 119.143668,39.5457362 C119.304182,39.6937707 119.513762,39.7873397 119.743668,39.7873397 C119.743668,39.7873397 121.249977,39.7845466 121.249977,39.790831 L121.266799,57.6694862 C121.266799,58.0242103 121.558388,58.3132966 121.911659,58.3132966 L123.696238,58.3132966 C124.05021,58.3132966 124.339696,58.0242103 124.339696,57.6694862 L124.338294,51.0603052 C124.48479,48.3998741 126.011425,46.356719 128.058855,46.356719 C129.696939,46.356719 130.182687,47.3859776 130.182687,49.1589 L130.137827,57.6694862 C130.137827,58.0242103 130.427313,58.3132966 130.784089,58.3132966 L132.614229,58.3132966 C132.9675,58.3132966 133.257687,58.0242103 133.257687,57.6694862 L133.256285,48.3586759 Z" id="Fill-24" fill="#090B09"></path>
                        <path d="M114.270771,44.0947241 L117.364696,44.0947241 C117.72007,44.0947241 118.010257,44.388 118.010257,44.7490086 L118.010257,45.7985172 C118.010257,46.157431 117.72007,46.4535 117.364696,46.4535 L114.274977,46.4535 L114.287593,53.27775 C114.287593,55.396319 114.717266,55.9675086 116.154883,55.9675086 C116.619603,55.9675086 117.075911,55.9158362 117.523808,55.8348362 C117.523808,55.8348362 117.678715,55.8103966 117.731285,55.8145862 C117.911425,55.8327414 118.05722,55.9521466 118.05722,56.1595345 L118.060023,57.5700517 C118.08736,57.9666724 117.918435,58.2438879 117.530117,58.3430431 L117.431986,58.3688793 L117.396238,58.3716724 C116.693201,58.4875862 115.901846,58.570681 115.178481,58.570681 C112.135724,58.570681 111.215397,57.3968793 111.215397,54.221819 L111.215397,46.4535 L109.126612,46.4535 C108.77264,46.4535 108.481752,46.157431 108.481752,45.7985172 L108.481752,44.7490086 C108.481752,44.388 108.77264,44.0947241 109.126612,44.0947241 L111.215397,44.0947241 L111.218902,39.9783879 C111.218902,39.7409741 111.37521,39.540569 111.591799,39.474931 L113.625911,38.9156121 C113.66236,38.9065345 113.699509,38.9037414 113.73736,38.9037414 C114.028949,38.9037414 114.263061,39.1369655 114.263061,39.42675 L114.270771,44.0947241 Z" id="Fill-26" fill="#090B09"></path>
                        <path d="M178.69514,57.7936397 L173.383458,50.5888293 L178.266869,44.5927345 C178.491168,44.3211052 178.384626,44.0948638 178.029252,44.0948638 L175.555654,44.0948638 C174.915,44.0948638 174.736262,44.3266914 174.523178,44.6087948 L170.290234,50.1768466 L170.288131,37.9989155 C170.288131,37.6462862 169.999346,37.3572 169.645374,37.3572 L165.693505,37.3572 C165.467103,37.3572 165.261028,37.4479759 165.103318,37.5904241 C164.911963,37.7635966 164.787196,38.0121828 164.787196,38.2914931 L164.787196,38.8529069 C164.787196,39.1294241 164.908458,39.3759155 165.095607,39.5462948 C165.255421,39.6943293 165.464299,39.7872 165.693505,39.7872 C165.693505,39.7872 167.201916,39.7844069 167.201916,39.7906914 L167.218738,57.6693466 C167.218738,58.0240707 167.508925,58.3131569 167.863598,58.3131569 L169.645374,58.3131569 C170.001449,58.3131569 170.292336,58.0240707 170.292336,57.6693466 L170.290234,51.1160276 L174.809159,57.7796741 C175.007523,58.07295 175.165234,58.3131569 175.815701,58.3131569 L178.430187,58.3131569 C178.785561,58.3131569 178.903318,58.0785362 178.69514,57.7936397" id="Fill-28" fill="#090B09"></path>
                        <path d="M43.8152103,55.8542483 C42.9243224,55.8542483 41.8196495,55.8486621 41.5911449,55.8486621 L41.5911449,49.5551017 C42.0404439,49.5313603 42.9916121,49.5313603 43.2986215,49.5313603 C46.0245561,49.5313603 48.0075,50.3322828 48.0075,52.5346448 C48.0075,54.4793431 46.6596028,55.8542483 43.8152103,55.8542483 M43.9890421,41.4055241 C46.7451168,41.4055241 47.6360047,42.5220672 47.6360047,44.0945845 C47.6360047,46.039981 46.1142757,47.2130845 43.2131075,47.2130845 C42.5710514,47.2130845 42.093014,47.2130845 41.5911449,47.1844552 L41.5911449,41.4090155 C41.8434813,41.3992397 43.2110047,41.4055241 43.9890421,41.4055241 M47.6058645,48.0719638 L47.6058645,48.0147052 C49.5860047,47.3276017 50.9079673,45.5819121 50.9079673,43.6106793 C50.9079673,40.633231 48.7266589,38.9189638 44.5056308,38.9189638 C43.2768925,38.9189638 39.0460514,38.9280414 39.0460514,38.9280414 C38.6899766,38.9280414 38.3976869,39.2192224 38.3976869,39.5732483 L38.3976869,57.7333086 C38.3976869,58.0880328 38.6899766,58.3799121 39.0460514,58.3799121 C39.0460514,58.3799121 42.5226869,58.3994638 43.6995561,58.3994638 C49.6441822,58.3994638 51.3103037,54.9939724 51.3103037,52.4773862 C51.3103037,50.4754293 50.1334346,48.5565672 47.6058645,48.0719638" id="Fill-30" fill="#090B09"></path>
                        <path d="M224.567383,8.25934655 C221.571589,-5.0840069 202.090514,0.237553448 189.81715,6.84045 C175.509673,14.5424328 177.008972,22.1257086 179.476262,27.5415362 C181.764813,32.5684241 189.464579,45.5423897 203.958505,45.3706138 C218.008037,45.2037259 227.534439,22.8533121 224.567383,8.25934655" id="Fill-32" fill="#EE7203"></path>
                        <path d="M207.838738,23.4219181 C207.838738,26.180806 205.590841,28.413194 202.826355,28.413194 C200.057664,28.413194 197.813972,26.180806 197.813972,23.4219181 C197.813972,20.6700129 200.057664,18.4306422 202.826355,18.4306422 C205.590841,18.4306422 207.838738,20.6700129 207.838738,23.4219181" id="Fill-34" fill="#FFFFFF"></path>
                        <path d="M192.528364,16.1452552 C192.528364,16.7806862 192.769486,17.3609534 193.247523,17.8734879 C193.736776,18.3783414 194.31014,18.6353069 194.951495,18.6353069 C195.571822,18.6353069 196.135374,18.387419 196.628832,17.9007207 C196.628832,17.9007207 202.285374,12.3759621 202.805467,11.8676172 C203.32486,12.3759621 208.982804,17.9007207 208.982804,17.9007207 C209.474159,18.387419 210.03771,18.6353069 210.658738,18.6353069 C211.300093,18.6353069 211.873458,18.3783414 212.362009,17.8734879 C212.840047,17.3609534 213.081168,16.7806862 213.081168,16.1452552 C213.081168,15.5293759 212.843551,14.9798328 212.376028,14.5126862 L204.64472,6.81070345 C204.646121,6.80511724 204.647523,6.79883276 204.647523,6.79883276 C204.128832,6.26535 203.509907,5.99441897 202.810374,5.99441897 L202.805467,5.99441897 L202.799159,5.99441897 C202.099626,5.99441897 201.481402,6.26535 200.962009,6.79883276 C200.962009,6.79883276 200.963411,6.80511724 200.964813,6.81070345 L193.233505,14.5126862 C192.765981,14.9798328 192.528364,15.5293759 192.528364,16.1452552" id="Fill-36" fill="#FFBC77"></path>
                        <path d="M213.081379,30.6866405 C213.081379,30.0512095 212.839556,29.4716405 212.36222,28.9584078 C211.872967,28.452856 211.300304,28.1965888 210.658949,28.1965888 C210.037921,28.1965888 209.474369,28.4444767 208.982313,28.9318733 C208.982313,28.9318733 203.32507,34.4559336 202.805678,34.9649767 C202.285584,34.4559336 196.629042,28.9318733 196.629042,28.9318733 C196.134883,28.4444767 195.572033,28.1965888 194.951706,28.1965888 C194.31035,28.1965888 193.736285,28.452856 193.247734,28.9584078 C192.768995,29.4716405 192.528575,30.0512095 192.528575,30.6866405 C192.528575,31.3025198 192.765491,31.8520629 193.234416,32.3185112 L200.965023,40.0211922 C200.963621,40.0274767 200.96222,40.0330629 200.96222,40.0330629 C201.481612,40.5665457 202.099836,40.8374767 202.799369,40.8374767 L202.805678,40.8374767 L202.810584,40.8374767 C203.510117,40.8374767 204.129042,40.5665457 204.647734,40.0330629 C204.647734,40.0330629 204.646332,40.0274767 204.64493,40.0211922 L212.376238,32.3185112 C212.843762,31.8520629 213.081379,31.3025198 213.081379,30.6866405" id="Fill-38" fill="#FFFFFF"></path>
                        <path d="M156.796472,70.5262112 C156.557453,69.811875 156.340164,69.1408319 156.188061,68.5340302 L156.143902,68.5340302 C155.9925,69.1408319 155.796238,69.811875 155.55722,70.5045647 L153.797173,75.4846681 L158.556519,75.4846681 L156.796472,70.5262112 Z M160.273808,80.5939526 L159.165631,77.3679181 L153.210491,77.3679181 L152.079883,80.5939526 L149.688995,80.5939526 L154.90535,65.9797371 L157.622173,65.9797371 L162.903014,80.5939526 L160.273808,80.5939526 Z" id="Fill-40" fill="#EE7203"></path>
                        <path d="M170.767921,75.635775 C167.529603,75.635775 166.638715,76.5456284 166.638715,77.5413698 C166.638715,78.3855853 167.203668,78.9916888 168.116285,78.9916888 C169.7025,78.9916888 170.767921,77.4764302 170.767921,75.939525 L170.767921,75.635775 Z M170.920023,80.5942319 C170.920023,79.900844 170.941752,79.1865078 171.028668,78.6020509 L171.006939,78.5804043 C170.485444,79.8575509 169.138248,80.8106974 167.420958,80.8106974 C165.573995,80.8106974 164.39993,79.6634302 164.39993,77.9093612 C164.39993,75.4842491 166.877734,74.0772233 170.767921,74.0772233 L170.767921,73.4704216 C170.767921,72.1290336 170.202266,71.4356457 168.507407,71.4356457 C167.508575,71.4356457 166.225864,71.760344 165.356005,72.2156198 L165.03007,70.310025 C166.095491,69.8987405 167.508575,69.6173353 168.85507,69.6173353 C172.181005,69.6173353 173.092921,71.0460078 173.092921,73.2546543 L173.092921,78.7968698 C173.615117,78.883456 174.353902,78.9700422 174.984743,79.0133353 L174.984743,80.442706 C173.76722,80.5718871 172.181005,80.6584733 170.920023,80.5942319 Z" id="Fill-42" fill="#EE7203"></path>
                        <path d="M184.826285,80.5939526 L184.826285,73.687306 C184.826285,72.3452198 184.457593,71.5435991 183.196612,71.5435991 C181.588668,71.5435991 180.371846,73.254375 180.371846,75.4197284 L180.371846,80.5939526 L178.067173,80.5939526 L178.067173,71.6308836 C177.545678,71.5435991 176.807593,71.4577112 176.176752,71.4144181 L176.176752,69.9850474 C177.393575,69.8551681 178.958762,69.7685819 180.28493,69.8335216 C180.28493,70.3963319 180.219743,71.3271336 180.110397,71.9555819 L180.153855,71.9555819 C180.783995,70.5702026 182.088435,69.617056 183.891939,69.617056 C186.348014,69.617056 187.130257,71.176306 187.130257,73.059556 L187.130257,80.5939526 L184.826285,80.5939526 Z" id="Fill-44" fill="#EE7203"></path>
                        <path d="M190.235257,80.5939526 L190.235257,78.7972888 L196.015864,69.6387026 C196.385257,69.0758922 196.711192,68.5780216 197.103014,68.0585043 C196.472173,68.0794526 195.624743,68.0794526 194.125444,68.0794526 L190.452547,68.0794526 L190.452547,65.9797371 L199.906051,65.9797371 L199.906051,67.8413405 L193.820537,77.3029784 C193.581519,77.7142629 193.343201,78.0606078 193.038995,78.4718922 C193.451846,78.4285991 194.62521,78.4285991 196.494603,78.4285991 L199.993668,78.4285991 L199.993668,80.5939526 L190.235257,80.5939526 Z" id="Fill-46" fill="#EE7203"></path>
                        <g id="Group-50" stroke-width="1" transform="translate(201.168224, 68.940078)">
                            <mask id="mask-4" fill="white">
                                <use xlink:href="#path-3"></use>
                            </mask>
                            <g id="Clip-49"></g>
                            <path d="M5.27684579,2.40919138 C3.97310748,2.40919138 3.05978972,3.38398448 2.86422897,4.87689828 L7.45044393,4.87689828 C7.49320093,3.36163966 6.64577103,2.40919138 5.27684579,2.40919138 M9.68852804,6.47944138 L2.82077103,6.47944138 C2.75558411,8.9262 3.7992757,10.0085276 6.01563084,10.0085276 C7.0586215,10.0085276 8.14577103,9.79206207 9.12287383,9.38007931 L9.42778037,11.1781397 C8.29787383,11.6103724 6.95067757,11.8708293 5.60278037,11.8708293 C2.27754673,11.8708293 0.429883178,10.1384069 0.429883178,6.34956207 C0.429883178,3.12282931 2.27754673,0.677467241 5.40721963,0.677467241 C8.49343458,0.677467241 9.77544393,2.7122431 9.77544393,5.15900172 C9.77544393,5.50534655 9.75371495,6.02486379 9.68852804,6.47944138" id="Fill-48" fill="#EE7203" mask="url(#mask-4)"></path>
                        </g>
                        <path d="M217.461519,80.788981 C215.157547,80.788981 214.46222,79.9014724 214.46222,77.4980069 L214.46222,71.6310931 L212.397266,71.6310931 L212.397266,69.833731 L214.46222,69.833731 L214.46222,66.4128776 L216.78722,65.7851276 L216.78722,69.833731 L219.612687,69.833731 L219.612687,71.6310931 L216.78722,71.6310931 L216.78722,76.7836707 C216.78722,78.3862138 217.113855,78.8184466 218.200304,78.8184466 C218.678341,78.8184466 219.13535,78.7535069 219.525771,78.6669207 L219.722033,80.5292224 C219.069463,80.6807483 218.177874,80.788981 217.461519,80.788981" id="Fill-51" fill="#EE7203"></path>
                    </g>
                </g>
            </g>
        </g>
    </g>
</svg>